<svg width="217" height="39" viewBox="0 0 217 39" fill="none" xmlns="http://www.w3.org/2000/svg">
<path d="M29.042 16.9365H38.9981V21.9374H29.042C28.3681 21.9374 27.722 21.6739 27.2455 21.2049C26.7691 20.7358 26.5015 20.0997 26.5015 19.4364C26.5017 18.7733 26.7695 18.1375 27.2459 17.6687C27.7224 17.1999 28.3684 16.9365 29.042 16.9365Z" fill="#227F8E"/>
<path d="M43.8516 1.93973L44.2938 3.43266C44.3221 3.52795 44.3742 3.6147 44.4454 3.6849C44.5167 3.75509 44.6047 3.80648 44.7014 3.83431L46.2162 4.27007C46.3423 4.30455 46.4534 4.3788 46.5326 4.48145C46.6118 4.5841 46.6547 4.70949 46.6547 4.83845C46.6547 4.9674 46.6118 5.0928 46.5326 5.19545C46.4534 5.2981 46.3423 5.37235 46.2162 5.40683L44.6988 5.83879C44.6022 5.86683 44.5143 5.91829 44.4431 5.98846C44.3719 6.05863 44.3197 6.14526 44.2912 6.24045L43.8491 7.73338C43.8141 7.85763 43.7387 7.96717 43.6346 8.04522C43.5304 8.12327 43.4032 8.16553 43.2724 8.16553C43.1415 8.16553 43.0142 8.12327 42.9101 8.04522C42.8059 7.96717 42.7307 7.85763 42.6956 7.73338L42.2638 6.24045C42.2353 6.14526 42.183 6.05863 42.1118 5.98846C42.0407 5.91829 41.9527 5.86683 41.8562 5.83879L40.3414 5.40303C40.2152 5.36856 40.1041 5.29432 40.0249 5.19166C39.9457 5.08901 39.9028 4.96361 39.9028 4.83466C39.9028 4.70571 39.9457 4.58031 40.0249 4.47766C40.1041 4.375 40.2152 4.30076 40.3414 4.26628L41.8562 3.83052C41.9529 3.80269 42.0409 3.7513 42.1121 3.6811C42.1834 3.61091 42.2355 3.52416 42.2638 3.42887L42.7059 1.93593C42.7435 1.81485 42.8197 1.70892 42.9231 1.63379C43.0265 1.55866 43.1517 1.51832 43.2802 1.51875C43.4087 1.51917 43.5336 1.56034 43.6365 1.63615C43.7394 1.71196 43.8149 1.8184 43.8516 1.93973Z" fill="#227F8E"/>
<path d="M39.6334 12.3277C38.938 12.3277 38.2711 12.0558 37.7792 11.5718C37.2873 11.0878 37.0108 10.4313 37.0106 9.74675V3.88853C37.0106 3.12244 36.7014 2.38774 36.1511 1.84603C35.6008 1.30433 34.8546 1 34.0764 1H31.7189C31.0114 1 30.3329 1.27667 29.8326 1.76915C29.3324 2.26163 29.0513 2.92958 29.0513 3.62604C29.0524 3.96565 28.9854 4.30211 28.8541 4.61616C28.7228 4.93021 28.5298 5.21566 28.2863 5.45617C28.0427 5.69667 27.7533 5.88749 27.4347 6.01769C27.1161 6.14789 26.7745 6.21491 26.4296 6.21491H11.2905C10.5123 6.21491 9.76597 6.51923 9.21567 7.06094C8.66543 7.60264 8.3563 8.33735 8.3563 9.10345V9.75006C8.3563 10.4347 8.08008 11.0911 7.5884 11.5751C7.09671 12.0592 6.42985 12.3311 5.73451 12.3311H2.93421C2.156 12.3311 1.40968 12.6354 0.859409 13.1771C0.30914 13.7188 0 14.4535 0 15.2196V23.7433C0 24.5093 0.30914 25.2441 0.859409 25.7857C1.40968 26.3275 2.156 26.6318 2.93421 26.6318H5.73451C6.42985 26.6318 7.09671 26.9038 7.5884 27.3877C8.08008 27.8718 8.3563 28.5283 8.3563 29.2128V35.0653C8.3563 35.8315 8.6654 36.5663 9.21567 37.1082C9.76589 37.6501 10.5122 37.9547 11.2905 37.955H13.5895C13.9479 37.955 14.3028 37.8854 14.6338 37.7502C14.9648 37.6152 15.2655 37.4171 15.5187 37.1674C15.7719 36.9178 15.9725 36.6214 16.1093 36.2953C16.246 35.9692 16.3161 35.6198 16.3155 35.267C16.3164 34.5828 16.5931 33.927 17.085 33.4438C17.5768 32.9604 18.2435 32.6891 18.9384 32.6894H34.0764C34.8546 32.6891 35.6009 32.3846 36.1512 31.8426C36.7015 31.3007 37.0106 30.5659 37.0106 29.7997V29.1306C37.011 28.5571 37.2055 28.0001 37.5634 27.5475C37.9214 27.095 38.4222 26.7728 38.9869 26.6318H42.4326C42.8181 26.6319 43.1997 26.5573 43.5558 26.4123C43.912 26.2672 44.2356 26.0544 44.5081 25.7862C44.7807 25.5179 44.997 25.1995 45.1445 24.8489C45.292 24.4984 45.368 24.1227 45.368 23.7433V15.2162C45.368 14.8368 45.292 14.4611 45.1445 14.1106C44.997 13.76 44.7807 13.4416 44.5081 13.1733C44.2356 12.9051 43.912 12.6923 43.5558 12.5472C43.1997 12.4021 42.8181 12.3276 42.4326 12.3277H39.6334ZM37.0106 23.9652C37.0106 24.6497 36.7343 25.3062 36.2426 25.7903C35.7509 26.2742 35.0841 26.5461 34.3887 26.5461L10.7 26.6138C10.0558 26.547 9.45962 26.2478 9.02624 25.7739C8.59284 25.3001 8.35297 24.6851 8.35286 24.0474V14.9087C8.35286 14.2242 8.62908 13.5677 9.12074 13.0836C9.61244 12.5996 10.2793 12.3277 10.9746 12.3277H34.3887C35.0841 12.3277 35.7509 12.5996 36.2426 13.0836C36.7343 13.5677 37.0106 14.2242 37.0106 14.9087V23.9652Z" fill="#227F8E"/>
<path d="M15.6792 21.9374C17.0823 21.9374 18.2197 20.8177 18.2197 19.4364C18.2197 18.0552 17.0823 16.9354 15.6792 16.9354C14.2761 16.9354 13.1387 18.0552 13.1387 19.4364C13.1387 20.8177 14.2761 21.9374 15.6792 21.9374Z" fill="#227F8E"/>
<path d="M55.8603 31.5199V10.786H53.4492V7.43504H66.143C68.625 7.43504 70.5043 8.04007 71.7808 9.25013C73.0809 10.4602 73.7309 12.2753 73.7309 14.6954C73.7309 17.0225 73.0927 18.7794 71.8162 19.9662C70.5397 21.153 68.6842 21.7464 66.2494 21.7464H60.4698V31.5199H55.8603ZM60.4698 18.6397H65.8239C66.8876 18.6397 67.6795 18.3721 68.1995 17.8369C68.7432 17.2784 69.0151 16.4523 69.0151 15.3586V14.0322C69.0151 12.9385 68.7432 12.124 68.1995 11.5888C67.6795 11.0536 66.8876 10.786 65.8239 10.786H60.4698V18.6397ZM81.0864 31.869C79.2663 31.869 77.8361 31.4036 76.796 30.4728C75.7796 29.5419 75.2714 28.2388 75.2714 26.5633C75.2714 24.8879 75.8269 23.5731 76.9379 22.619C78.0488 21.6649 79.6918 21.0715 81.8665 20.8388L86.7951 20.3501V23.2124L83.2138 23.5614C82.032 23.6546 81.181 23.8989 80.6609 24.2945C80.1408 24.6668 79.8808 25.2136 79.8808 25.935V26.2841C79.8808 27.0055 80.1527 27.5523 80.6964 27.9247C81.2637 28.297 82.0555 28.4831 83.072 28.4831C84.3012 28.4831 85.2231 28.2272 85.8377 27.7152C86.4759 27.2032 86.7951 26.4237 86.7951 25.3765V22.7586V22.2001V19.5822C86.7951 18.3256 86.5232 17.418 85.9795 16.8596C85.4595 16.3011 84.6439 16.0218 83.533 16.0218C82.7292 16.0218 82.0792 16.1498 81.5828 16.4058C81.1101 16.6385 80.7555 16.941 80.5191 17.3133C80.3063 17.6857 80.2 18.0929 80.2 18.535V18.8143H75.6614C75.9923 16.6966 76.8197 15.1259 78.1434 14.102C79.4908 13.0548 81.3109 12.5313 83.6039 12.5313C86.1332 12.5313 88.0479 13.1247 89.3477 14.3114C90.6481 15.4982 91.2979 17.2319 91.2979 19.5124V28.2737H93.3899V31.5199H90.2342C88.3434 31.5199 87.3978 30.5891 87.3978 28.7275V28.0643H86.3696C85.9913 29.3674 85.3768 30.3331 84.5258 30.9614C83.6985 31.5665 82.5519 31.869 81.0864 31.869ZM96.1467 31.5199V16.1265H94.0193V12.8803H100.012V16.4756H101.111C101.488 15.1725 102.068 14.2067 102.848 13.5784C103.628 12.9501 104.668 12.636 105.968 12.636H108.202V16.1265H104.089C102.907 16.1265 102.033 16.4523 101.465 17.1039C100.921 17.7555 100.65 18.7794 100.65 20.1756V31.5199H96.1467ZM115.091 31.5199C113.2 31.5199 112.254 30.5775 112.254 28.6926V12.8803L113.779 9.14542H116.757V28.2737H120.587V31.5199H115.091ZM109.276 16.1265V12.8803H120.587V16.1265H109.276ZM132.297 31.869C130.429 31.869 128.786 31.4152 127.368 30.5077C125.973 29.5768 124.874 28.1923 124.07 26.3539C123.29 24.5155 122.9 22.2234 122.9 19.4775C122.9 16.7083 123.313 14.4162 124.141 12.6011C124.968 10.7627 126.162 9.38976 127.723 8.48221C129.306 7.55139 131.22 7.08598 133.467 7.08598C136.232 7.08598 138.466 7.77246 140.168 9.14542C141.87 10.4951 142.969 12.508 143.466 15.1841H138.785V14.5209C138.785 14.102 138.679 13.6715 138.466 13.2294C138.276 12.7872 137.97 12.38 137.544 12.0077C137.142 11.6121 136.61 11.298 135.949 11.0652C135.286 10.8093 134.459 10.6813 133.467 10.6813C131.504 10.6813 130.063 11.2281 129.141 12.3218C128.242 13.4155 127.793 15.1376 127.793 17.4879V21.4671C127.793 23.8407 128.254 25.586 129.176 26.703C130.098 27.7966 131.552 28.3435 133.538 28.3435C135.523 28.3435 136.977 27.8199 137.899 26.7728C138.821 25.7256 139.282 24.2596 139.282 22.3747V20.4897L139.814 22.3048H133.644V19.1633H143.785V31.5199H139.884V27.0869H138.821C137.97 30.2749 135.794 31.869 132.297 31.869ZM155.818 31.869C153.95 31.869 152.343 31.4966 150.996 30.752C149.672 30.0074 148.656 28.9136 147.947 27.4709C147.261 26.0281 146.918 24.2712 146.918 22.2001C146.918 20.1058 147.261 18.3489 147.947 16.9294C148.656 15.4866 149.672 14.3929 150.996 13.6482C152.343 12.9036 153.95 12.5313 155.818 12.5313C157.662 12.5313 159.222 12.8803 160.499 13.5784C161.775 14.2532 162.744 15.2539 163.406 16.5803C164.091 17.9067 164.434 19.5473 164.434 21.502V23.0379H149.826V20.1756H162.839L159.967 21.9558V20.8737C159.967 19.1517 159.636 17.8951 158.974 17.1039C158.312 16.2895 157.26 15.8822 155.818 15.8822C154.4 15.8822 153.348 16.2895 152.662 17.1039C152 17.8951 151.67 19.1517 151.67 20.8737V23.4218C151.67 25.1438 152 26.4004 152.662 27.1916C153.348 27.9829 154.4 28.3784 155.818 28.3784C156.764 28.3784 157.496 28.2388 158.017 27.9596C158.56 27.6803 158.95 27.3429 159.187 26.9473C159.423 26.5517 159.541 26.191 159.541 25.8652V25.586H164.151C163.725 27.6338 162.803 29.1929 161.385 30.2633C159.967 31.3338 158.111 31.869 155.818 31.869ZM168.24 31.5199V16.1265H166.112V12.8803H172.105V16.4407H173.204C173.582 15.1143 174.185 14.1369 175.012 13.5086C175.84 12.857 176.927 12.5313 178.274 12.5313C180.189 12.5313 181.631 13.1014 182.6 14.2416C183.593 15.3586 184.089 17.0225 184.089 19.2331V28.2737H186.252V31.5199H179.622V20.0709C179.622 18.6514 179.338 17.6275 178.771 16.9992C178.227 16.3476 177.365 16.0218 176.182 16.0218C175.001 16.0218 174.126 16.3476 173.558 16.9992C173.015 17.6275 172.743 18.6514 172.743 20.0709V31.5199H168.24ZM189.215 31.5199V16.1265H186.91V12.8803H193.718V31.5199H189.215ZM188.931 11.2048V7.43504H193.86V11.2048H188.931ZM205.967 31.869C204.1 31.869 202.492 31.4966 201.144 30.752C199.821 30.0074 198.804 28.9136 198.095 27.4709C197.41 26.0281 197.067 24.2712 197.067 22.2001C197.067 20.1058 197.41 18.3489 198.095 16.9294C198.804 15.4866 199.821 14.3929 201.144 13.6482C202.492 12.9036 204.1 12.5313 205.967 12.5313C207.81 12.5313 209.371 12.8803 210.647 13.5784C211.923 14.2532 212.893 15.2539 213.555 16.5803C214.241 17.9067 214.583 19.5473 214.583 21.502V23.0379H199.974V20.1756H212.987L210.115 21.9558V20.8737C210.115 19.1517 209.784 17.8951 209.122 17.1039C208.461 16.2895 207.409 15.8822 205.967 15.8822C204.548 15.8822 203.497 16.2895 202.811 17.1039C202.15 17.8951 201.818 19.1517 201.818 20.8737V23.4218C201.818 25.1438 202.15 26.4004 202.811 27.1916C203.497 27.9829 204.548 28.3784 205.967 28.3784C206.912 28.3784 207.646 28.2388 208.165 27.9596C208.709 27.6803 209.099 27.3429 209.335 26.9473C209.572 26.5517 209.69 26.191 209.69 25.8652V25.586H214.299C213.874 27.6338 212.952 29.1929 211.533 30.2633C210.115 31.3338 208.26 31.869 205.967 31.869Z" fill="white"/>
</svg>
